<!DOCTYPE svg PUBLIC "-//W3C//DTD SVG 1.1//EN" "http://www.w3.org/Graphics/SVG/1.1/DTD/svg11.dtd">
<!-- Uploaded to: SVG Repo, www.svgrepo.com, Transformed by: SVG Repo Mixer Tools -->
<svg version="1.1" id="_x32_" xmlns="http://www.w3.org/2000/svg" xmlns:xlink="http://www.w3.org/1999/xlink" width="800px" height="800px" viewBox="0 0 512 512" xml:space="preserve" fill="#ffffff" stroke="#ffffff" stroke-width="10.24">
<g id="SVGRepo_bgCarrier" stroke-width="0"/>
<g id="SVGRepo_tracerCarrier" stroke-linecap="round" stroke-linejoin="round"/>
<g id="SVGRepo_iconCarrier"> <style type="text/css">  .st0{fill:#ffffff;}  </style> <g> <path class="st0" d="M508.748,177.951C499.686,24.341,325.67-0.002,256.014-0.002S12.326,24.341,3.248,177.951 C-1.924,265.638,44.545,376.56,44.545,376.56c17.938-2.25,19.297-33.781,18.906-69.547c-0.078-7.641,15.234-15.484,15.141-23.266 c-0.453-39.516,0.766-77.703,22.672-82.563c46.422-10.313,154.75-15.484,154.75-15.484s108.313,5.172,154.719,15.484 c21.922,4.859,23.141,43.047,22.688,82.563c-0.109,7.781,15.219,15.625,15.141,23.266c-0.391,35.766,0.969,67.297,18.906,69.547 C467.467,376.56,513.951,265.638,508.748,177.951z"/> <path class="st0" d="M260.076,438.264c-14.219-2.484-48.063-4.984-79.953,18.938c-41.734,31.297-55.641,45.203-55.641,45.203 s80.031,33.297,135.594-24.141c55.563,57.438,135.594,24.141,135.594,24.141s-13.906-13.906-55.641-45.203 C308.139,433.279,274.295,435.779,260.076,438.264z"/> <path class="st0" d="M157.92,364.951c36.016,0,49.547-10.141,49.547-20.266s-67.563,0-85.563,0 C121.904,344.685,121.904,364.951,157.92,364.951z"/> <path class="st0" d="M390.576,344.685c-18.016,0-85.563-10.125-85.563,0s13.516,20.266,49.531,20.266 C390.576,364.951,390.576,344.685,390.576,344.685z"/> <path class="st0" d="M216.014,323.669c6.453,2.578,11.438-5.641,1.781-10c-4.328-1.938-50.578-25.203-75.938-34.328 c-9.125-3.281-14-1.453-17.391,1.938c-7.016,7.016-19.172,18.859-21.922,21.75c-2.75,2.906,0.828,8.406,7.734,3.875 c8.875-5.813,18.531-9.672,18.531-9.672S209.576,321.091,216.014,323.669z"/> <path class="st0" d="M388.123,281.279c-3.375-3.391-8.281-5.219-17.406-1.938c-25.359,9.125-71.594,32.391-75.906,34.328 c-9.688,4.359-4.688,12.578,1.766,10c6.438-2.578,87.203-26.438,87.203-26.438s9.672,3.859,18.531,9.672 c6.922,4.531,10.484-0.969,7.734-3.875C407.311,300.138,395.154,288.294,388.123,281.279z"/> </g> </g>
</svg>